<?xml version="1.0" encoding="UTF-8"?>
<svg version="1.1" xmlns="http://www.w3.org/2000/svg" width="640" height="640">
<path d="M0 0 C211.2 0 422.4 0 640 0 C640 211.2 640 422.4 640 640 C428.8 640 217.6 640 0 640 C0 428.8 0 217.6 0 0 Z " fill="#F4F4F4" transform="translate(0,0)"/>
<path d="M0 0 C1.66085884 -0.01506844 1.66085884 -0.01506844 3.35527039 -0.03044128 C5.17089226 -0.03918777 5.17089226 -0.03918777 7.02319336 -0.04811096 C8.30172684 -0.05789474 9.58026031 -0.06767853 10.89753723 -0.07775879 C15.13600653 -0.10909119 19.37449508 -0.12941129 23.61303711 -0.14796448 C24.33579079 -0.1512618 25.05854446 -0.15455912 25.80319977 -0.15795636 C32.62893403 -0.18874565 39.45467293 -0.21543418 46.28045654 -0.23237514 C54.98711789 -0.25424283 63.69315958 -0.29613511 72.39957333 -0.36581272 C78.53396963 -0.41322349 84.66819982 -0.43733165 90.80277348 -0.44457203 C94.45980889 -0.44950446 98.11614527 -0.46435094 101.77297974 -0.50431633 C105.86326857 -0.54842906 109.95220504 -0.54424839 114.04272461 -0.53639221 C115.23694534 -0.55639282 116.43116608 -0.57639343 117.66157532 -0.59700012 C128.47567519 -0.50422012 137.87240017 3.48249233 145.55053711 11.16062927 C152.29882176 19.03362803 154.08463357 27.90849848 155.59350586 37.92234802 C155.85349113 39.58557854 155.85349113 39.58557854 156.11872864 41.28240967 C156.48145852 43.61399534 156.84008663 45.94622245 157.19482422 48.27903748 C157.73809877 51.8485344 158.2946135 55.41577656 158.85327148 58.9828949 C159.20495931 61.2542592 159.55589678 63.52573984 159.90600586 65.79734802 C160.07158493 66.8620079 160.237164 67.92666779 160.40776062 69.02359009 C160.55824356 70.01844925 160.7087265 71.01330841 160.86376953 72.03831482 C161.06337532 73.34448006 161.06337532 73.34448006 161.26701355 74.67703247 C161.55053711 77.16062927 161.55053711 77.16062927 161.55053711 82.16062927 C173.43053711 82.16062927 185.31053711 82.16062927 197.55053711 82.16062927 C197.51573242 78.41590271 197.48092773 74.67117615 197.44506836 70.81297302 C197.42165464 67.17569236 197.40344832 63.53842018 197.38574219 59.90110779 C197.37068006 57.37828294 197.35022634 54.85548417 197.32421875 52.33274841 C197.28772328 48.70109103 197.27078451 45.06978069 197.25756836 41.43797302 C197.2420845 40.31479172 197.22660065 39.19161041 197.21064758 38.03439331 C197.20920867 31.29954581 197.43576359 25.69546131 202.08569336 20.41844177 C207.27454083 16.56993598 210.22463479 16.00531574 216.5769043 15.98362732 C217.40636566 15.97705612 218.23582703 15.97048492 219.09042358 15.9637146 C221.84275396 15.94396141 224.5950297 15.93231384 227.34741211 15.92234802 C228.28688942 15.9182725 229.22636673 15.91419697 230.19431305 15.90999794 C235.16786989 15.88912746 240.14139906 15.87483062 245.11499023 15.86546326 C250.25097263 15.85440351 255.3865212 15.82001142 260.52235031 15.78029156 C264.4720744 15.75413615 268.42169503 15.74577232 272.37149811 15.74218178 C274.26450781 15.73731216 276.15751279 15.72568748 278.05043793 15.70714378 C280.70283773 15.68277763 283.35411417 15.68371274 286.0065918 15.69065857 C286.78604156 15.67784851 287.56549133 15.66503845 288.36856079 15.65184021 C294.65723329 15.71174267 298.04559325 18.00359428 302.80053711 22.09812927 C306.11648511 26.00621084 306.80072039 29.74576514 306.77758789 34.77708435 C306.77743683 35.87784805 306.77728577 36.97861176 306.77713013 38.11273193 C306.76680756 39.28998337 306.75648499 40.4672348 306.74584961 41.68016052 C306.74160477 43.50072212 306.74160477 43.50072212 306.73727417 45.35806274 C306.72609019 49.22985239 306.70098841 53.10140968 306.67553711 56.97312927 C306.66550503 59.60007905 306.65637957 62.22703247 306.64819336 64.85398865 C306.62615665 71.28961463 306.59269652 77.72510535 306.55053711 84.16062927 C307.7923877 84.29928406 309.03423828 84.43793884 310.3137207 84.58079529 C314.56461665 85.05541524 318.28495392 86.35763094 322.17553711 88.09812927 C322.86067383 88.40242859 323.54581055 88.70672791 324.25170898 89.02024841 C344.12012282 98.24715811 358.25788465 114.06383293 366.23418236 134.36664581 C371.03494437 147.631469 370.98507914 161.36814189 370.9387207 175.27586365 C370.94279536 177.35076166 370.94814221 179.42565751 370.95465088 181.50054932 C370.96822402 187.08939591 370.96306748 192.67807471 370.95351362 198.2669239 C370.94586481 204.14372807 370.95297703 210.02051882 370.95767212 215.89732361 C370.96311456 225.76229912 370.95597786 235.62720702 370.94165039 245.49217224 C370.92532685 256.86207609 370.93061643 268.23181849 370.94712961 279.60171843 C370.96078768 289.40179933 370.96264308 299.20183191 370.9548136 309.00191927 C370.95016077 314.83839339 370.94944591 320.67479187 370.95942307 326.51126099 C370.96815361 332.00094771 370.96196067 337.49042831 370.9447403 342.980093 C370.94080775 344.98262886 370.94185329 346.98518236 370.94852829 348.98771095 C371.02668615 374.83876168 366.42141687 398.43337111 347.67553711 417.47312927 C333.12260352 431.68741112 313.23872521 441.25827996 292.61509323 441.29485035 C291.44382661 441.29930819 290.27255998 441.30376604 289.06580043 441.30835897 C287.788197 441.3081746 286.51059358 441.30799024 285.1942749 441.30780029 C283.81599107 441.31110223 282.4377082 441.31482849 281.05942655 441.31894177 C277.27680341 441.32893292 273.49419614 441.33267392 269.71156168 441.33533108 C265.62947832 441.33924286 261.54740741 441.34882075 257.46533203 441.35754395 C247.60781684 441.37728637 237.75030066 441.38737292 227.89277065 441.39627174 C223.24485068 441.40065932 218.59693184 441.406025 213.94901276 441.4112606 C198.48717358 441.42827262 183.0253351 441.44276437 167.56348801 441.45000935 C163.55298614 441.45191909 159.54248427 441.45383944 155.53198242 441.45579529 C154.53525046 441.45627903 153.53851849 441.45676277 152.51158252 441.45726117 C136.3836385 441.46555238 120.25576887 441.49087404 104.1278573 441.52337597 C87.55029703 441.55651014 70.97277448 441.57446395 54.39518094 441.57765359 C45.09544591 441.57981308 35.79581928 441.58847902 26.49611664 441.61411476 C18.57185266 441.63590901 10.64772342 441.64382964 2.72343287 441.63414798 C-1.31327529 441.62962805 -5.349706 441.63135329 -9.38637543 441.65090942 C-39.84547572 441.79016823 -63.85830478 438.7839095 -87.07446289 417.09812927 C-106.54829955 396.94889943 -109.76150119 373.06673666 -109.72412109 346.16477966 C-109.72847659 344.07870299 -109.7336625 341.99262792 -109.73960876 339.90655518 C-109.75291848 334.27843913 -109.75358654 328.65039056 -109.75104547 323.02226186 C-109.7499705 318.30830015 -109.7548724 313.5943518 -109.75965089 308.88039297 C-109.77071784 297.75284749 -109.77119904 286.62533578 -109.76513672 275.49778748 C-109.75909587 264.05065957 -109.77141731 252.60365455 -109.79270679 241.15654761 C-109.81036507 231.29623195 -109.81631757 221.43595527 -109.81306905 211.57562441 C-109.81126313 205.7005802 -109.81382319 199.82562371 -109.82778358 193.95059395 C-109.84042666 188.42401353 -109.83835688 182.8976238 -109.8253727 177.37104607 C-109.82302161 175.35357471 -109.82568836 173.33608965 -109.83399582 171.31863403 C-109.93422495 145.06705509 -103.79499052 123.49359503 -85.69946289 103.84812927 C-74.19006972 93.01302378 -56.52154511 82.95466281 -40.44946289 83.16062927 C-40.4055542 82.46622742 -40.36164551 81.77182556 -40.31640625 81.05638123 C-39.71388647 72.71775422 -38.45305531 64.57874166 -37.01196289 56.34812927 C-35.31203333 46.74577129 -35.31203333 46.74577129 -33.93359375 37.09422302 C-33.8513707 36.42675552 -33.76914764 35.75928802 -33.68443298 35.07159424 C-33.46332497 33.22558142 -33.25479925 31.37807398 -33.04711914 29.53050232 C-31.25419716 19.42114687 -25.35197615 11.47194274 -17.44946289 5.16062927 C-11.7939448 1.56982414 -6.63374933 0.0474057 0 0 Z " fill="#F4F5F5" transform="translate(189.449462890625,90.83937072753906)"/>
<path d="M0 0 C1.66085884 -0.01506844 1.66085884 -0.01506844 3.35527039 -0.03044128 C5.17089226 -0.03918777 5.17089226 -0.03918777 7.02319336 -0.04811096 C8.30172684 -0.05789474 9.58026031 -0.06767853 10.89753723 -0.07775879 C15.13600653 -0.10909119 19.37449508 -0.12941129 23.61303711 -0.14796448 C24.33579079 -0.1512618 25.05854446 -0.15455912 25.80319977 -0.15795636 C32.62893403 -0.18874565 39.45467293 -0.21543418 46.28045654 -0.23237514 C54.98711789 -0.25424283 63.69315958 -0.29613511 72.39957333 -0.36581272 C78.53396963 -0.41322349 84.66819982 -0.43733165 90.80277348 -0.44457203 C94.45980889 -0.44950446 98.11614527 -0.46435094 101.77297974 -0.50431633 C105.86326857 -0.54842906 109.95220504 -0.54424839 114.04272461 -0.53639221 C115.23694534 -0.55639282 116.43116608 -0.57639343 117.66157532 -0.59700012 C128.47567519 -0.50422012 137.87240017 3.48249233 145.55053711 11.16062927 C152.29882176 19.03362803 154.08463357 27.90849848 155.59350586 37.92234802 C155.85349113 39.58557854 155.85349113 39.58557854 156.11872864 41.28240967 C156.48145852 43.61399534 156.84008663 45.94622245 157.19482422 48.27903748 C157.73809877 51.8485344 158.2946135 55.41577656 158.85327148 58.9828949 C159.20495931 61.2542592 159.55589678 63.52573984 159.90600586 65.79734802 C160.07158493 66.8620079 160.237164 67.92666779 160.40776062 69.02359009 C160.55824356 70.01844925 160.7087265 71.01330841 160.86376953 72.03831482 C161.06337532 73.34448006 161.06337532 73.34448006 161.26701355 74.67703247 C161.55053711 77.16062927 161.55053711 77.16062927 161.55053711 82.16062927 C173.43053711 82.16062927 185.31053711 82.16062927 197.55053711 82.16062927 C197.51573242 78.41590271 197.48092773 74.67117615 197.44506836 70.81297302 C197.42165464 67.17569236 197.40344832 63.53842018 197.38574219 59.90110779 C197.37068006 57.37828294 197.35022634 54.85548417 197.32421875 52.33274841 C197.28772328 48.70109103 197.27078451 45.06978069 197.25756836 41.43797302 C197.2420845 40.31479172 197.22660065 39.19161041 197.21064758 38.03439331 C197.20920867 31.29954581 197.43576359 25.69546131 202.08569336 20.41844177 C207.27454083 16.56993598 210.22463479 16.00531574 216.5769043 15.98362732 C217.40636566 15.97705612 218.23582703 15.97048492 219.09042358 15.9637146 C221.84275396 15.94396141 224.5950297 15.93231384 227.34741211 15.92234802 C228.28688942 15.9182725 229.22636673 15.91419697 230.19431305 15.90999794 C235.16786989 15.88912746 240.14139906 15.87483062 245.11499023 15.86546326 C250.25097263 15.85440351 255.3865212 15.82001142 260.52235031 15.78029156 C264.4720744 15.75413615 268.42169503 15.74577232 272.37149811 15.74218178 C274.26450781 15.73731216 276.15751279 15.72568748 278.05043793 15.70714378 C280.70283773 15.68277763 283.35411417 15.68371274 286.0065918 15.69065857 C286.78604156 15.67784851 287.56549133 15.66503845 288.36856079 15.65184021 C294.65723329 15.71174267 298.04559325 18.00359428 302.80053711 22.09812927 C306.11648511 26.00621084 306.80072039 29.74576514 306.77758789 34.77708435 C306.77743683 35.87784805 306.77728577 36.97861176 306.77713013 38.11273193 C306.76680756 39.28998337 306.75648499 40.4672348 306.74584961 41.68016052 C306.74160477 43.50072212 306.74160477 43.50072212 306.73727417 45.35806274 C306.72609019 49.22985239 306.70098841 53.10140968 306.67553711 56.97312927 C306.66550503 59.60007905 306.65637957 62.22703247 306.64819336 64.85398865 C306.62615665 71.28961463 306.59269652 77.72510535 306.55053711 84.16062927 C307.7923877 84.29928406 309.03423828 84.43793884 310.3137207 84.58079529 C314.56461665 85.05541524 318.28495392 86.35763094 322.17553711 88.09812927 C322.86067383 88.40242859 323.54581055 88.70672791 324.25170898 89.02024841 C344.12012282 98.24715811 358.25788465 114.06383293 366.23418236 134.36664581 C371.03494437 147.631469 370.98507914 161.36814189 370.9387207 175.27586365 C370.94279536 177.35076166 370.94814221 179.42565751 370.95465088 181.50054932 C370.96822402 187.08939591 370.96306748 192.67807471 370.95351362 198.2669239 C370.94586481 204.14372807 370.95297703 210.02051882 370.95767212 215.89732361 C370.96311456 225.76229912 370.95597786 235.62720702 370.94165039 245.49217224 C370.92532685 256.86207609 370.93061643 268.23181849 370.94712961 279.60171843 C370.96078768 289.40179933 370.96264308 299.20183191 370.9548136 309.00191927 C370.95016077 314.83839339 370.94944591 320.67479187 370.95942307 326.51126099 C370.96815361 332.00094771 370.96196067 337.49042831 370.9447403 342.980093 C370.94080775 344.98262886 370.94185329 346.98518236 370.94852829 348.98771095 C371.02668615 374.83876168 366.42141687 398.43337111 347.67553711 417.47312927 C333.12260352 431.68741112 313.23872521 441.25827996 292.61509323 441.29485035 C291.44382661 441.29930819 290.27255998 441.30376604 289.06580043 441.30835897 C287.788197 441.3081746 286.51059358 441.30799024 285.1942749 441.30780029 C283.81599107 441.31110223 282.4377082 441.31482849 281.05942655 441.31894177 C277.27680341 441.32893292 273.49419614 441.33267392 269.71156168 441.33533108 C265.62947832 441.33924286 261.54740741 441.34882075 257.46533203 441.35754395 C247.60781684 441.37728637 237.75030066 441.38737292 227.89277065 441.39627174 C223.24485068 441.40065932 218.59693184 441.406025 213.94901276 441.4112606 C198.48717358 441.42827262 183.0253351 441.44276437 167.56348801 441.45000935 C163.55298614 441.45191909 159.54248427 441.45383944 155.53198242 441.45579529 C154.53525046 441.45627903 153.53851849 441.45676277 152.51158252 441.45726117 C136.3836385 441.46555238 120.25576887 441.49087404 104.1278573 441.52337597 C87.55029703 441.55651014 70.97277448 441.57446395 54.39518094 441.57765359 C45.09544591 441.57981308 35.79581928 441.58847902 26.49611664 441.61411476 C18.57185266 441.63590901 10.64772342 441.64382964 2.72343287 441.63414798 C-1.31327529 441.62962805 -5.349706 441.63135329 -9.38637543 441.65090942 C-39.84547572 441.79016823 -63.85830478 438.7839095 -87.07446289 417.09812927 C-106.54829955 396.94889943 -109.76150119 373.06673666 -109.72412109 346.16477966 C-109.72847659 344.07870299 -109.7336625 341.99262792 -109.73960876 339.90655518 C-109.75291848 334.27843913 -109.75358654 328.65039056 -109.75104547 323.02226186 C-109.7499705 318.30830015 -109.7548724 313.5943518 -109.75965089 308.88039297 C-109.77071784 297.75284749 -109.77119904 286.62533578 -109.76513672 275.49778748 C-109.75909587 264.05065957 -109.77141731 252.60365455 -109.79270679 241.15654761 C-109.81036507 231.29623195 -109.81631757 221.43595527 -109.81306905 211.57562441 C-109.81126313 205.7005802 -109.81382319 199.82562371 -109.82778358 193.95059395 C-109.84042666 188.42401353 -109.83835688 182.8976238 -109.8253727 177.37104607 C-109.82302161 175.35357471 -109.82568836 173.33608965 -109.83399582 171.31863403 C-109.93422495 145.06705509 -103.79499052 123.49359503 -85.69946289 103.84812927 C-74.19006972 93.01302378 -56.52154511 82.95466281 -40.44946289 83.16062927 C-40.4055542 82.46622742 -40.36164551 81.77182556 -40.31640625 81.05638123 C-39.71388647 72.71775422 -38.45305531 64.57874166 -37.01196289 56.34812927 C-35.31203333 46.74577129 -35.31203333 46.74577129 -33.93359375 37.09422302 C-33.8513707 36.42675552 -33.76914764 35.75928802 -33.68443298 35.07159424 C-33.46332497 33.22558142 -33.25479925 31.37807398 -33.04711914 29.53050232 C-31.25419716 19.42114687 -25.35197615 11.47194274 -17.44946289 5.16062927 C-11.7939448 1.56982414 -6.63374933 0.0474057 0 0 Z M1.55053711 33.16062927 C-0.04869919 36.35910187 -0.73243881 37.9001715 -1.19555664 41.22312927 C-1.36607544 42.4044342 -1.36607544 42.4044342 -1.54003906 43.60960388 C-1.65452393 44.45144226 -1.76900879 45.29328064 -1.88696289 46.16062927 C-2.14183229 47.95364623 -2.39705125 49.74661353 -2.65258789 51.53953552 C-2.84691406 52.92423035 -2.84691406 52.92423035 -3.04516602 54.3368988 C-3.44718168 57.14469664 -3.87332017 59.94768986 -4.30883789 62.75047302 C-4.44749268 63.64701599 -4.58614746 64.54355896 -4.72900391 65.4672699 C-4.99557678 67.18635382 -5.26420599 68.90512047 -5.53515625 70.6235199 C-5.65511963 71.40791443 -5.77508301 72.19230896 -5.89868164 73.00047302 C-6.005271 73.68488464 -6.11186035 74.36929626 -6.22167969 75.07444763 C-6.48092127 77.44874489 -6.46380288 79.77378219 -6.44946289 82.16062927 C-5.45245361 82.1642749 -4.45544434 82.16792053 -3.42822266 82.17167664 C5.98781103 82.20868829 15.40351953 82.26652826 24.81930542 82.34453201 C29.65957963 82.38396737 34.49967298 82.41617517 39.34008789 82.43162537 C44.01522388 82.44681794 48.68986253 82.48130953 53.36477661 82.52893829 C55.14441596 82.54372531 56.92412632 82.55166875 58.7038269 82.55251312 C61.20534703 82.55489267 63.70550367 82.58204982 66.20678711 82.61473083 C66.93543472 82.60970047 67.66408234 82.6046701 68.41481018 82.5994873 C73.83823962 82.70844092 77.98021374 84.23108535 82.55053711 87.16062927 C85.94716847 90.97382863 87.28284691 96.08585898 87.00366211 101.14109802 C85.87714064 106.16188766 83.03958018 110.03476744 78.98803711 113.09812927 C75.21974152 114.74071966 71.98706716 115.28570307 67.88485718 115.29866028 C66.48470871 115.30684029 66.48470871 115.30684029 65.05627441 115.31518555 C64.03908325 115.31622787 63.02189209 115.3172702 61.97387695 115.31834412 C60.35849533 115.32596519 60.35849533 115.32596519 58.71047974 115.33374023 C56.37077015 115.34444184 54.03105033 115.35306284 51.69132614 115.35985947 C47.98326034 115.37165654 44.27531058 115.39111307 40.56729126 115.41297913 C30.02381564 115.47455811 19.48036801 115.52857853 8.93676758 115.56199646 C2.48704799 115.58298894 -3.9624609 115.6183321 -10.41205978 115.66275406 C-12.86550789 115.6768808 -15.31899329 115.68562895 -17.77248001 115.68880844 C-21.21402131 115.69373926 -24.65500777 115.71695511 -28.09643555 115.74412537 C-29.10148132 115.74111923 -30.1065271 115.7381131 -31.14202881 115.73501587 C-44.65108086 115.89270045 -53.90297658 120.84049841 -63.69946289 129.91062927 C-72.13266458 138.70232739 -75.7656639 149.17596065 -75.7101593 161.16654968 C-75.71398485 162.05090029 -75.7178104 162.93525091 -75.72175187 163.84640002 C-75.73203756 166.79788396 -75.72809811 169.74917175 -75.72412109 172.70066833 C-75.72847009 174.82175882 -75.73365386 176.94284774 -75.73960876 179.06393433 C-75.75299163 184.81822483 -75.75357808 190.57244963 -75.75104547 196.32675266 C-75.74997501 201.13518258 -75.75486118 205.94359924 -75.75965089 210.75202632 C-75.77074418 222.10031423 -75.77118484 233.44856904 -75.76513672 244.79685974 C-75.75909989 256.4910164 -75.77140102 268.18505266 -75.79270679 279.87918878 C-75.81034218 289.9295326 -75.81632098 299.97983818 -75.81306905 310.03019691 C-75.81125872 316.02817798 -75.81386715 322.0260732 -75.82778358 328.02404022 C-75.84038833 333.66788517 -75.83839267 339.31154303 -75.8253727 344.95538521 C-75.82301293 347.02129493 -75.82572 349.08721792 -75.83399582 351.15311241 C-75.89800003 368.37911417 -74.40552011 381.77645425 -62.13696289 394.97312927 C-50.89107015 405.417533 -38.35545617 407.61899899 -23.45155334 407.54830933 C-22.06467476 407.55249018 -20.6777996 407.55797179 -19.29093069 407.56462914 C-15.5079529 407.57900389 -11.72519446 407.57486422 -7.94220507 407.56746233 C-3.851449 407.56271312 0.23926081 407.57525589 4.33000183 407.58547974 C12.33297724 407.60263844 20.33587404 407.6035139 28.33886307 407.59826683 C34.84594307 407.59421868 41.35299991 407.59567634 47.86007881 407.60101509 C49.25142828 407.60213772 49.25142828 407.60213772 50.67088582 407.60328304 C52.55547218 407.60481458 54.44005853 407.60635292 56.32464487 407.607898 C73.980605 407.62161227 91.63652077 407.61619275 109.29247988 407.60471279 C125.43063444 407.59478001 141.56867436 407.60772377 157.70681124 407.63164698 C174.29581139 407.65605245 190.88475818 407.66564239 207.47377592 407.65899426 C216.77993928 407.65550546 226.08601448 407.6577118 235.39216423 407.67524529 C243.31356574 407.6899853 251.23481698 407.69057913 259.1562156 407.67317437 C263.19422912 407.66467709 267.23197441 407.66248352 271.26997375 407.67782593 C274.97303411 407.69172109 278.67559766 407.68684871 282.37862963 407.66758669 C284.33865344 407.66207915 286.29870286 407.67605776 288.2586779 407.6909408 C301.22833373 407.58375362 313.33275279 403.82497326 322.99584961 394.90281677 C332.30290561 385.10429907 336.86866417 374.54568383 336.81796265 361.116745 C336.82475932 359.78409375 336.82475932 359.78409375 336.83169329 358.42452025 C336.84431364 355.45922448 336.84271844 352.49411293 336.84106445 349.52879333 C336.8470512 347.39785019 336.85385709 345.26690921 336.86141968 343.13597107 C336.87907263 337.35482802 336.88377479 331.57374419 336.88505125 325.79257679 C336.88647389 322.17808989 336.89074564 318.563618 336.89604568 314.94913483 C336.91454414 302.33179775 336.92271659 289.7145029 336.92114258 277.09715271 C336.91994147 265.34843469 336.94103844 253.59990047 336.9726299 241.85122895 C336.99880972 231.7541754 337.00950914 221.65718181 337.00823176 211.56009459 C337.0077226 205.5341354 337.01338047 199.50833954 337.03458786 193.48241425 C337.05399862 187.81226535 337.05407508 182.14243513 337.0395546 176.47227478 C337.03746889 174.39668562 337.04215309 172.32107636 337.05427551 170.24552155 C337.14515738 153.60088011 335.03536308 141.09151861 323.30053711 128.47312927 C311.84736423 117.6240798 299.19000752 115.71478773 284.0065918 115.69993591 C282.45821048 115.6875836 280.90983938 115.67388958 279.36148071 115.65896606 C276.04620911 115.62957584 272.73104543 115.60900741 269.4156723 115.5953083 C264.17066742 115.57301487 258.92602353 115.52727648 253.68121338 115.47787476 C240.66177753 115.35877127 227.64216127 115.26855469 214.62243652 115.18754578 C204.48664405 115.124256 194.35108421 115.05227161 184.21557164 114.95303816 C179.00377313 114.90299772 173.79228731 114.87129943 168.58028364 114.85350621 C165.33925456 114.83842783 162.09853548 114.80696449 158.85767746 114.77098274 C157.35733146 114.75765157 155.85690757 114.75107712 154.35650253 114.75182724 C152.30472317 114.75190392 150.2545895 114.72758341 148.20306396 114.6973877 C147.05643658 114.69022264 145.90980919 114.68305758 144.72843552 114.67567539 C139.93659762 113.899056 136.72363346 111.67006457 133.76489258 107.86302185 C132.2769496 104.55179531 131.69276191 101.50911976 131.12084961 97.92234802 C131.00540802 97.21641006 130.88996643 96.51047211 130.77102661 95.78314209 C130.39585304 93.47295789 130.03575217 91.16068858 129.67553711 88.84812927 C129.41704848 87.24315804 129.15759678 85.63834163 128.8972168 84.03367615 C127.59476789 75.96422126 126.35170916 67.88579731 125.12084961 59.80516052 C125.00810699 59.06916122 124.89536438 58.33316193 124.77920532 57.57485962 C124.2428058 54.07314667 123.71317171 50.57077577 123.19946289 47.06565857 C123.01109863 45.8182489 122.82273437 44.57083923 122.62866211 43.28562927 C122.46785156 42.1950824 122.30704102 41.10453552 122.14135742 39.98094177 C121.61248846 36.86066247 121.61248846 36.86066247 119.55053711 33.16062927 C80.61053711 33.16062927 41.67053711 33.16062927 1.55053711 33.16062927 Z " fill="#090504" transform="translate(189.449462890625,90.83937072753906)"/>
<path d="M0 0 C18.29011901 15.31384095 29.46217184 34.66716023 35.4375 57.625 C35.80681641 59.04232422 35.80681641 59.04232422 36.18359375 60.48828125 C41.75302308 87.02949273 35.63670836 115.82653845 21.4375 138.625 C18.61563211 142.7838018 15.61120865 146.7297377 12.4375 150.625 C11.82519531 151.40230469 11.21289062 152.17960938 10.58203125 152.98046875 C-5.05942002 171.82358169 -30.24425948 185.03289762 -54.5625 187.625 C-75.67437672 188.9624325 -94.24771197 187.3399388 -113.5625 178.625 C-114.95275391 178.00431641 -114.95275391 178.00431641 -116.37109375 177.37109375 C-140.85013924 165.79987568 -160.65739302 143.33523549 -169.90234375 117.9453125 C-179.88426061 88.53718762 -176.97035579 58.77323993 -163.53808594 31.16625977 C-151.67716766 7.82066796 -130.06073504 -10.32422919 -105.5625 -19.375 C-100.30548655 -21.0544285 -94.95926895 -22.24213394 -89.5625 -23.375 C-88.60859375 -23.60058594 -87.6546875 -23.82617188 -86.671875 -24.05859375 C-55.79105133 -30.76176655 -23.9781165 -19.16283901 0 0 Z " fill="#090504" transform="translate(382.5625,270.375)"/>
<path d="M0 0 C3.56983163 2.79529236 6.82049045 5.77055051 10 9 C10.70769531 9.70898438 11.41539062 10.41796875 12.14453125 11.1484375 C27.26202461 27.16199643 30.61711342 45.39786996 30.34375 66.625 C29.77428664 82.70284877 22.40949391 96.97412505 12 109 C11.05060547 110.10988281 11.05060547 110.10988281 10.08203125 111.2421875 C-0.63668156 122.8658573 -13.90059122 128.40948241 -29 132 C-29.81597656 132.19980469 -30.63195312 132.39960938 -31.47265625 132.60546875 C-50.72873796 135.61144132 -68.92919475 130.66531789 -85 120 C-99.77011804 109.17946048 -110.89084241 93.00042685 -114.5234375 74.96875 C-117.1793398 52.85074397 -114.24140631 34.34504189 -101.25 15.9375 C-76.28643723 -15.70462631 -33.22880646 -22.85252489 0 0 Z " fill="#F4F4F4" transform="translate(356,292)"/>
<path d="M0 0 C3.23872284 2.71148889 5.79118119 5.45736239 7.6875 9.25 C7.99820484 15.11414504 8.04417357 20.97927259 8.0925293 26.85083008 C8.114041 28.81292393 8.14806217 30.77492361 8.19506836 32.73657227 C8.66145496 52.38621989 8.66145496 52.38621989 3.36914062 58.83349609 C-0.66442694 62.23110919 -4.70471487 63.02031641 -9.8125 63.75 C-15.30645405 62.96514942 -19.35559474 60.27213543 -23.1875 56.3125 C-26.10289896 50.96760191 -26.63073189 45.84399114 -26.6484375 39.8515625 C-26.6550943 39.05777191 -26.6617511 38.26398132 -26.66860962 37.44613647 C-26.67869341 35.77368471 -26.68342797 34.10119307 -26.68310547 32.42871094 C-26.68747541 29.88928996 -26.72382887 27.35161376 -26.76171875 24.8125 C-26.76758877 23.17969338 -26.77155692 21.54687859 -26.7734375 19.9140625 C-26.79499405 18.79023666 -26.79499405 18.79023666 -26.81698608 17.64370728 C-26.76964875 12.09857627 -25.35448827 7.90197966 -22.3125 3.25 C-15.59453148 -3.29571291 -8.28521463 -4.37709452 0 0 Z " fill="#0A0706" transform="translate(486.3125,248.75)"/>
<path d="M0 0 C13.86 0 27.72 0 42 0 C42 10.89 42 21.78 42 33 C28.14 33 14.28 33 0 33 C0 22.11 0 11.22 0 0 Z " fill="#F2F2F2" transform="translate(420,140)"/>
<path d="M0 0 C4.940258 2.59734595 8.1871751 5.99511904 9.9453125 11.26953125 C10.33563254 17.12433184 9.91080282 21.03049835 6.9453125 26.26953125 C2.92183815 30.52386068 -0.90748408 32.40638009 -6.7421875 32.64453125 C-12.30234334 32.57950019 -15.93715825 30.97234532 -20.0546875 27.26953125 C-24.12433707 22.05529274 -23.81988033 15.5997628 -23.0546875 9.26953125 C-21.07413475 4.8330931 -18.4816474 2.19789274 -14.109375 -0.03515625 C-9.46408992 -1.60713485 -4.6284262 -1.64546711 0 0 Z " fill="#0A0606" transform="translate(484.0546875,320.73046875)"/>
<path d="M0 0 C102.3 0 204.6 0 310 0 C307 2 307 2 304 3 C301.3125 2.0625 301.3125 2.0625 299 1 C299 1.66 299 2.32 299 3 C298.34 3 297.68 3 297 3 C297 2.34 297 1.68 297 1 C295.515 1.495 295.515 1.495 294 2 C292.35364876 2.0908242 290.70382136 2.12375217 289.05496693 2.12304783 C287.51505485 2.1260344 287.51505485 2.1260344 285.94403344 2.12908131 C284.81272412 2.12616847 283.68141479 2.12325563 282.51582336 2.12025452 C281.31677925 2.12110894 280.11773513 2.12196337 278.88235635 2.12284368 C275.54845148 2.12420892 272.21460497 2.12107258 268.88070714 2.11606562 C265.28767927 2.11175584 261.69465327 2.11320792 258.10162354 2.1139679 C251.87454614 2.11449279 245.6474792 2.11134954 239.42040443 2.10573006 C230.4170485 2.09761046 221.41369763 2.09499936 212.41033842 2.09374207 C197.80374814 2.09155227 183.19716343 2.08489414 168.59057617 2.07543945 C154.39982125 2.06626347 140.20906784 2.05918354 126.01831055 2.05493164 C125.14390901 2.05466892 124.26950748 2.05440619 123.36860893 2.05413551 C118.98208796 2.05283049 114.59556699 2.05156678 110.20904601 2.05032361 C73.80602673 2.03995325 37.4030138 2.0223369 1 2 C0.67 1.34 0.34 0.68 0 0 Z " fill="#FEFEFE" transform="translate(159,532)"/>
<path d="M0 0 C0.66 0.33 1.32 0.66 2 1 C1.67 1.66 1.34 2.32 1 3 C2.93254772 5.0245738 4.63158688 6.42105792 7 8 C4.03 7.505 4.03 7.505 1 7 C1 6.34 1 5.68 1 5 C0.01 5 -0.98 5 -2 5 C-1.33291016 5.76183594 -1.33291016 5.76183594 -0.65234375 6.5390625 C4.01426314 12.21552737 4.01426314 12.21552737 3.9375 16.4375 C3 19 3 19 2 20 C0.33382885 20.04063832 -1.33388095 20.042721 -3 20 C-2 18 -2 18 1 17 C0.67 16.67 0.34 16.34 0 16 C-0.33 16.33 -0.66 16.66 -1 17 C-6.52941176 17.23529412 -6.52941176 17.23529412 -9 16 C-9 16.66 -9 17.32 -9 18 C-8.01 18.33 -7.02 18.66 -6 19 C-6 19.66 -6 20.32 -6 21 C-9.40062014 19.59284684 -10.89229698 17.97131772 -13 15 C-9.09489511 9.49280079 -4.90282356 4.64172645 0 0 Z " fill="#E5E5E5" transform="translate(132,215)"/>
<path d="M0 0 C2.375 -0.125 2.375 -0.125 5 0 C7.40346379 2.40346379 7.32083747 3.13900195 7.375 6.4375 C7.25314861 10.6413728 7.25314861 10.6413728 5.5 13.125 C1.77004119 14.43048558 -1.11064483 13.62731535 -5 13 C-5.99 13.495 -5.99 13.495 -7 14 C-5.66666667 10 -4.33333333 6 -3 2 C-2.34 2 -1.68 2 -1 2 C-0.67 1.34 -0.34 0.68 0 0 Z " fill="#161313" transform="translate(527,462)"/>
<path d="M0 0 C1.66666667 1.66666667 3.33333333 3.33333333 5 5 C5.928125 5.680625 5.928125 5.680625 6.875 6.375 C8 8 8 8 7.6875 11.6875 C7.460625 12.780625 7.23375 13.87375 7 15 C5.02 15.33 3.04 15.66 1 16 C1 15.34 1 14.68 1 14 C2.32 14 3.64 14 5 14 C5 13.01 5 12.02 5 11 C4.34 11.66 3.68 12.32 3 13 C-0.09771665 13.32954432 -2.17331023 13.45334601 -4.9375 11.9375 C-6.70741998 8.70999887 -5.98191918 6.43671714 -5 3 C-2.4375 1.0625 -2.4375 1.0625 0 0 Z " fill="#E6E6E6" transform="translate(598,389)"/>
<path d="M0 0 C1.66666667 1.66666667 3.33333333 3.33333333 5 5 C5.928125 5.680625 5.928125 5.680625 6.875 6.375 C8 8 8 8 7.6875 11.6875 C7.460625 12.780625 7.23375 13.87375 7 15 C5.02 15.33 3.04 15.66 1 16 C1 15.34 1 14.68 1 14 C2.32 14 3.64 14 5 14 C5 13.01 5 12.02 5 11 C4.34 11.66 3.68 12.32 3 13 C-0.09771665 13.32954432 -2.17331023 13.45334601 -4.9375 11.9375 C-6.70741998 8.70999887 -5.98191918 6.43671714 -5 3 C-2.4375 1.0625 -2.4375 1.0625 0 0 Z " fill="#E6E6E6" transform="translate(278,389)"/>
<path d="M0 0 C1.66666667 1.66666667 3.33333333 3.33333333 5 5 C5.928125 5.680625 5.928125 5.680625 6.875 6.375 C8 8 8 8 7.6875 11.6875 C7.460625 12.780625 7.23375 13.87375 7 15 C5.02 15.33 3.04 15.66 1 16 C1 15.34 1 14.68 1 14 C2.32 14 3.64 14 5 14 C5 13.01 5 12.02 5 11 C4.34 11.66 3.68 12.32 3 13 C-0.09771665 13.32954432 -2.17331023 13.45334601 -4.9375 11.9375 C-6.70741998 8.70999887 -5.98191918 6.43671714 -5 3 C-2.4375 1.0625 -2.4375 1.0625 0 0 Z " fill="#E6E6E6" transform="translate(598,69)"/>
<path d="M0 0 C1.66666667 1.66666667 3.33333333 3.33333333 5 5 C5.928125 5.680625 5.928125 5.680625 6.875 6.375 C8 8 8 8 7.6875 11.6875 C7.460625 12.780625 7.23375 13.87375 7 15 C5.02 15.33 3.04 15.66 1 16 C1 15.34 1 14.68 1 14 C2.32 14 3.64 14 5 14 C5 13.01 5 12.02 5 11 C4.34 11.66 3.68 12.32 3 13 C-0.09771665 13.32954432 -2.17331023 13.45334601 -4.9375 11.9375 C-6.70741998 8.70999887 -5.98191918 6.43671714 -5 3 C-2.4375 1.0625 -2.4375 1.0625 0 0 Z " fill="#E6E6E6" transform="translate(278,69)"/>
<path d="M0 0 C4.23487608 1.56847262 6.51526254 4.30839006 9 8 C8.80392157 13.19607843 8.80392157 13.19607843 7 15 C5.33382885 15.04063832 3.66611905 15.042721 2 15 C3 13 3 13 6 12 C5.67 11.67 5.34 11.34 5 11 C4.67 11.33 4.34 11.66 4 12 C-0.03160191 12.26293056 -1.55892734 12.29404844 -5 10 C-5.25660094 6.92078868 -5.39431504 4.78863007 -4 2 C-2.68 2 -1.36 2 0 2 C0 1.34 0 0.68 0 0 Z " fill="#E5E5E5" transform="translate(447,540)"/>
<path d="M0 0 C4.23487608 1.56847262 6.51526254 4.30839006 9 8 C8.80392157 13.19607843 8.80392157 13.19607843 7 15 C5.33382885 15.04063832 3.66611905 15.042721 2 15 C3 13 3 13 6 12 C5.67 11.67 5.34 11.34 5 11 C4.67 11.33 4.34 11.66 4 12 C-0.03160191 12.26293056 -1.55892734 12.29404844 -5 10 C-5.25660094 6.92078868 -5.39431504 4.78863007 -4 2 C-2.68 2 -1.36 2 0 2 C0 1.34 0 0.68 0 0 Z " fill="#E5E5E5" transform="translate(127,540)"/>
<path d="M0 0 C4.23487608 1.56847262 6.51526254 4.30839006 9 8 C8.80392157 13.19607843 8.80392157 13.19607843 7 15 C5.33382885 15.04063832 3.66611905 15.042721 2 15 C3 13 3 13 6 12 C5.67 11.67 5.34 11.34 5 11 C4.67 11.33 4.34 11.66 4 12 C-0.03160191 12.26293056 -1.55892734 12.29404844 -5 10 C-5.25660094 6.92078868 -5.39431504 4.78863007 -4 2 C-2.68 2 -1.36 2 0 2 C0 1.34 0 0.68 0 0 Z " fill="#E5E5E5" transform="translate(447,220)"/>
<path d="M0 0 C1.8125 1.1875 1.8125 1.1875 3 3 C2.6875 6.1875 2.6875 6.1875 2 9 C0.68 9.33 -0.64 9.66 -2 10 C-2 10.66 -2 11.32 -2 12 C-1.01 12.33 -0.02 12.66 1 13 C0.34 13.66 -0.32 14.32 -1 15 C-1.66 14.67 -2.32 14.34 -3 14 C-3 13.34 -3 12.68 -3 12 C-3.66 12 -4.32 12 -5 12 C-10 6.52380952 -10 6.52380952 -10 4 C-9.34 4 -8.68 4 -8 4 C-7.896875 3.360625 -7.79375 2.72125 -7.6875 2.0625 C-7.460625 1.381875 -7.23375 0.70125 -7 0 C-3.83170302 -1.05609899 -3.01480825 -1.13055309 0 0 Z " fill="#E6E6E6" transform="translate(434,558)"/>
<path d="M0 0 C1.8125 1.1875 1.8125 1.1875 3 3 C2.6875 6.1875 2.6875 6.1875 2 9 C0.68 9.33 -0.64 9.66 -2 10 C-2 10.66 -2 11.32 -2 12 C-1.01 12.33 -0.02 12.66 1 13 C0.34 13.66 -0.32 14.32 -1 15 C-1.66 14.67 -2.32 14.34 -3 14 C-3 13.34 -3 12.68 -3 12 C-3.66 12 -4.32 12 -5 12 C-10 6.52380952 -10 6.52380952 -10 4 C-9.34 4 -8.68 4 -8 4 C-7.896875 3.360625 -7.79375 2.72125 -7.6875 2.0625 C-7.460625 1.381875 -7.23375 0.70125 -7 0 C-3.83170302 -1.05609899 -3.01480825 -1.13055309 0 0 Z " fill="#E6E6E6" transform="translate(114,558)"/>
<path d="M0 0 C1.8125 1.1875 1.8125 1.1875 3 3 C2.6875 6.1875 2.6875 6.1875 2 9 C0.68 9.33 -0.64 9.66 -2 10 C-2 10.66 -2 11.32 -2 12 C-1.01 12.33 -0.02 12.66 1 13 C0.34 13.66 -0.32 14.32 -1 15 C-1.66 14.67 -2.32 14.34 -3 14 C-3 13.34 -3 12.68 -3 12 C-3.66 12 -4.32 12 -5 12 C-10 6.52380952 -10 6.52380952 -10 4 C-9.34 4 -8.68 4 -8 4 C-7.896875 3.360625 -7.79375 2.72125 -7.6875 2.0625 C-7.460625 1.381875 -7.23375 0.70125 -7 0 C-3.83170302 -1.05609899 -3.01480825 -1.13055309 0 0 Z " fill="#E6E6E6" transform="translate(434,238)"/>
<path d="M0 0 C3.16259871 -0.40373601 5.14012639 -0.54458662 7.875 1.1875 C9.38332602 3.61758081 9.36023622 5.19015752 9 8 C8.34 8.66 7.68 9.32 7 10 C6.01 10 5.02 10 4 10 C4 10.66 4 11.32 4 12 C4.66 12 5.32 12 6 12 C5.67 12.99 5.34 13.98 5 15 C4.51789062 14.50628906 4.03578125 14.01257813 3.5390625 13.50390625 C2.90742187 12.86324219 2.27578125 12.22257812 1.625 11.5625 C0.99851562 10.92441406 0.37203125 10.28632813 -0.2734375 9.62890625 C-1.91723061 7.92117824 -1.91723061 7.92117824 -4 7 C-2.79618552 4.50638429 -1.54571278 2.31856917 0 0 Z " fill="#E5E5E5" transform="translate(578,408)"/>
<path d="M0 0 C3.16259871 -0.40373601 5.14012639 -0.54458662 7.875 1.1875 C9.38332602 3.61758081 9.36023622 5.19015752 9 8 C8.34 8.66 7.68 9.32 7 10 C6.01 10 5.02 10 4 10 C4 10.66 4 11.32 4 12 C4.66 12 5.32 12 6 12 C5.67 12.99 5.34 13.98 5 15 C4.51789062 14.50628906 4.03578125 14.01257813 3.5390625 13.50390625 C2.90742187 12.86324219 2.27578125 12.22257812 1.625 11.5625 C0.99851562 10.92441406 0.37203125 10.28632812 -0.2734375 9.62890625 C-1.91723061 7.92117824 -1.91723061 7.92117824 -4 7 C-2.79618552 4.50638429 -1.54571278 2.31856917 0 0 Z " fill="#E5E5E5" transform="translate(578,88)"/>
<path d="M0 0 C0.66 1.32 1.32 2.64 2 4 C0 3 -2 2 -4 1 C-4 1.66 -4 2.32 -4 3 C-3.34 3 -2.68 3 -2 3 C-2 4.32 -2 5.64 -2 7 C-2.66 6.67 -3.32 6.34 -4 6 C-3.67 5.34 -3.34 4.68 -3 4 C-3.99 4.495 -3.99 4.495 -5 5 C-5 5.99 -5 6.98 -5 8 C-4.01 8 -3.02 8 -2 8 C-1.67 7.34 -1.34 6.68 -1 6 C-0.34 6 0.32 6 1 6 C0.67 7.32 0.34 8.64 0 10 C-2.3125 10.625 -2.3125 10.625 -5 11 C-5.99 10.34 -6.98 9.68 -8 9 C-8 9.66 -8 10.32 -8 11 C-5.36 11.33 -2.72 11.66 0 12 C-0.33 12.66 -0.66 13.32 -1 14 C-4.71599191 14.20086443 -5.77208445 14.1519437 -9 12 C-9 11.34 -9 10.68 -9 10 C-9.66 10 -10.32 10 -11 10 C-10.40550688 3.69837297 -10.40550688 3.69837297 -8.875 1.0625 C-5.96905769 -0.58420065 -3.26178195 -0.18462917 0 0 Z " fill="#171312" transform="translate(381,292)"/>
<path d="M0 0 C1 3 1 3 0.0625 5.1875 C-2.35162213 7.30900126 -3.07685859 7.25551532 -6.1875 7.25 C-7.445625 7.1675 -8.70375 7.085 -10 7 C-10 7.99 -10 8.98 -10 10 C-9.34 10 -8.68 10 -8 10 C-8 10.66 -8 11.32 -8 12 C-10.62187494 10.95125002 -11.79371361 10.35068687 -13.25 7.875 C-13.4975 7.25625 -13.745 6.6375 -14 6 C-9.97780608 1.50460679 -6.20919335 -2.06973112 0 0 Z " fill="#E6E6E6" transform="translate(149,209)"/>
<path d="M0 0 C2.31 0.33 4.62 0.66 7 1 C5.62845496 3.95409701 4.01136276 6.44008376 2 9 C3.32 8.67 4.64 8.34 6 8 C6.33 6.68 6.66 5.36 7 4 C7.66 4 8.32 4 9 4 C8.6875 6.375 8.6875 6.375 8 9 C5 11 5 11 2.4375 10.6875 C0 10 0 10 -2 9 C-2.8125 6.6875 -2.8125 6.6875 -3 4 C-1.5625 1.6875 -1.5625 1.6875 0 0 Z " fill="#1A1615" transform="translate(299,517)"/>
<path d="M0 0 C-1.2491742 3.45925163 -2.67527795 6.14693203 -5 9 C-1.18586998 7.8321734 -1.18586998 7.8321734 1.3125 4.875 C1.539375 4.25625 1.76625 3.6375 2 3 C1.67 5.31 1.34 7.62 1 10 C-0.27875 10.061875 -1.5575 10.12375 -2.875 10.1875 C-3.59429688 10.22230469 -4.31359375 10.25710938 -5.0546875 10.29296875 C-5.69664062 10.19628906 -6.33859375 10.09960938 -7 10 C-9.14762184 6.77856724 -9.561068 5.7404533 -9 2 C-6.04897468 -1.27891703 -4.09533092 -1.25135112 0 0 Z " fill="#E4E4E4" transform="translate(617,376)"/>
<path d="M0 0 C-1.2491742 3.45925163 -2.67527795 6.14693203 -5 9 C-1.18586998 7.8321734 -1.18586998 7.8321734 1.3125 4.875 C1.539375 4.25625 1.76625 3.6375 2 3 C1.67 5.31 1.34 7.62 1 10 C-0.27875 10.061875 -1.5575 10.12375 -2.875 10.1875 C-3.59429687 10.22230469 -4.31359375 10.25710938 -5.0546875 10.29296875 C-5.69664062 10.19628906 -6.33859375 10.09960938 -7 10 C-9.14762184 6.77856724 -9.561068 5.7404533 -9 2 C-6.04897468 -1.27891703 -4.09533092 -1.25135112 0 0 Z " fill="#E4E4E4" transform="translate(297,376)"/>
<path d="M0 0 C-1.2491742 3.45925163 -2.67527795 6.14693203 -5 9 C-1.18586998 7.8321734 -1.18586998 7.8321734 1.3125 4.875 C1.539375 4.25625 1.76625 3.6375 2 3 C1.67 5.31 1.34 7.62 1 10 C-0.27875 10.061875 -1.5575 10.12375 -2.875 10.1875 C-3.59429688 10.22230469 -4.31359375 10.25710937 -5.0546875 10.29296875 C-5.69664062 10.19628906 -6.33859375 10.09960938 -7 10 C-9.14762184 6.77856724 -9.561068 5.7404533 -9 2 C-6.04897468 -1.27891703 -4.09533092 -1.25135112 0 0 Z " fill="#E4E4E4" transform="translate(617,56)"/>
<path d="M0 0 C-1.2491742 3.45925163 -2.67527795 6.14693203 -5 9 C-1.18586998 7.8321734 -1.18586998 7.8321734 1.3125 4.875 C1.539375 4.25625 1.76625 3.6375 2 3 C1.67 5.31 1.34 7.62 1 10 C-0.27875 10.061875 -1.5575 10.12375 -2.875 10.1875 C-3.59429687 10.22230469 -4.31359375 10.25710937 -5.0546875 10.29296875 C-5.69664062 10.19628906 -6.33859375 10.09960938 -7 10 C-9.14762184 6.77856724 -9.561068 5.7404533 -9 2 C-6.04897468 -1.27891703 -4.09533092 -1.25135112 0 0 Z " fill="#E4E4E4" transform="translate(297,56)"/>
<path d="M0 0 C3.625 0.375 3.625 0.375 7 1 C5.38731308 3.71224618 3.75098126 6.37352812 2 9 C3.32 8.67 4.64 8.34 6 8 C6.33 6.68 6.66 5.36 7 4 C7.66 4 8.32 4 9 4 C8.6875 6.375 8.6875 6.375 8 9 C5 11 5 11 2.4375 10.75 C0 10 0 10 -2 8 C-2.25 5 -2.25 5 -2 2 C-1.34 1.34 -0.68 0.68 0 0 Z " fill="#E3E3E3" transform="translate(619,367)"/>
<path d="M0 0 C3.625 0.375 3.625 0.375 7 1 C5.38731308 3.71224618 3.75098126 6.37352812 2 9 C3.32 8.67 4.64 8.34 6 8 C6.33 6.68 6.66 5.36 7 4 C7.66 4 8.32 4 9 4 C8.6875 6.375 8.6875 6.375 8 9 C5 11 5 11 2.4375 10.75 C0 10 0 10 -2 8 C-2.25 5 -2.25 5 -2 2 C-1.34 1.34 -0.68 0.68 0 0 Z " fill="#E3E3E3" transform="translate(299,367)"/>
<path d="M0 0 C3.625 0.375 3.625 0.375 7 1 C5.38731308 3.71224618 3.75098126 6.37352812 2 9 C3.32 8.67 4.64 8.34 6 8 C6.33 6.68 6.66 5.36 7 4 C7.66 4 8.32 4 9 4 C8.6875 6.375 8.6875 6.375 8 9 C5 11 5 11 2.4375 10.75 C0 10 0 10 -2 8 C-2.25 5 -2.25 5 -2 2 C-1.34 1.34 -0.68 0.68 0 0 Z " fill="#E3E3E3" transform="translate(619,47)"/>
<path d="M0 0 C3.625 0.375 3.625 0.375 7 1 C5.38731308 3.71224618 3.75098126 6.37352812 2 9 C3.32 8.67 4.64 8.34 6 8 C6.33 6.68 6.66 5.36 7 4 C7.66 4 8.32 4 9 4 C8.6875 6.375 8.6875 6.375 8 9 C5 11 5 11 2.4375 10.75 C0 10 0 10 -2 8 C-2.25 5 -2.25 5 -2 2 C-1.34 1.34 -0.68 0.68 0 0 Z " fill="#E3E3E3" transform="translate(299,47)"/>
<path d="M0 0 C2.0625 1.5625 2.0625 1.5625 3 4 C2.87602701 7.53323032 2.64443655 10.01800145 0.6875 13 C-1 14 -1 14 -3.1875 13.6875 C-3.785625 13.460625 -4.38375 13.23375 -5 13 C-3.7934375 12.38125 -3.7934375 12.38125 -2.5625 11.75 C0.06289008 10.25463354 0.06289008 10.25463354 1 8.0625 C1.15721338 5.89572042 1.15721338 5.89572042 -0.125 3.8125 C-2.38167494 1.63104756 -3.92468444 1.33246655 -7 1 C-8.98362069 3.91708924 -8.9876191 5.12380904 -8.625 8.75 C-8.41875 9.8225 -8.2125 10.895 -8 12 C-8.66 12 -9.32 12 -10 12 C-11.52491998 8.95016004 -11.23562548 6.3576631 -11 3 C-8.85023976 -1.16516046 -4.12934638 -0.75547293 0 0 Z " fill="#E6E6E6" transform="translate(531,612)"/>
<path d="M0 0 C2.0625 1.5625 2.0625 1.5625 3 4 C2.87602701 7.53323032 2.64443655 10.01800145 0.6875 13 C-1 14 -1 14 -3.1875 13.6875 C-3.785625 13.460625 -4.38375 13.23375 -5 13 C-3.7934375 12.38125 -3.7934375 12.38125 -2.5625 11.75 C0.06289008 10.25463354 0.06289008 10.25463354 1 8.0625 C1.15721338 5.89572042 1.15721338 5.89572042 -0.125 3.8125 C-2.38167494 1.63104756 -3.92468444 1.33246655 -7 1 C-8.98362069 3.91708924 -8.9876191 5.12380904 -8.625 8.75 C-8.41875 9.8225 -8.2125 10.895 -8 12 C-8.66 12 -9.32 12 -10 12 C-11.52491998 8.95016004 -11.23562548 6.3576631 -11 3 C-8.85023976 -1.16516046 -4.12934638 -0.75547293 0 0 Z " fill="#E6E6E6" transform="translate(211,612)"/>
<path d="M0 0 C2.0625 1.5625 2.0625 1.5625 3 4 C2.87602701 7.53323032 2.64443655 10.01800145 0.6875 13 C-1 14 -1 14 -3.1875 13.6875 C-3.785625 13.460625 -4.38375 13.23375 -5 13 C-3.7934375 12.38125 -3.7934375 12.38125 -2.5625 11.75 C0.06289008 10.25463354 0.06289008 10.25463354 1 8.0625 C1.15721338 5.89572042 1.15721338 5.89572042 -0.125 3.8125 C-2.38167494 1.63104756 -3.92468444 1.33246655 -7 1 C-8.98362069 3.91708924 -8.9876191 5.12380904 -8.625 8.75 C-8.41875 9.8225 -8.2125 10.895 -8 12 C-8.66 12 -9.32 12 -10 12 C-11.52491998 8.95016004 -11.23562548 6.3576631 -11 3 C-8.85023976 -1.16516046 -4.12934638 -0.75547293 0 0 Z " fill="#E5E5E5" transform="translate(211,292)"/>
<path d="M0 0 C2 2 2 2 2 5 C3.9375006 7.18777466 3.9375006 7.18777466 6 9 C2.09161134 9 0.88405893 7.49432124 -2 5 C-2 5.99 -2 6.98 -2 8 C-1.01 8.33 -0.02 8.66 1 9 C1 9.66 1 10.32 1 11 C1.99 11.33 2.98 11.66 4 12 C0.05362526 11.43623218 -2.83196811 10.4640248 -6 8 C-6.8125 5.3125 -6.8125 5.3125 -7 3 C-4.525 3.495 -4.525 3.495 -2 4 C-2 3.34 -2 2.68 -2 2 C-1.34 2 -0.68 2 0 2 C0 1.34 0 0.68 0 0 Z " fill="#E5E5E5" transform="translate(135,531)"/>
<path d="M0 0 C2 1 2 1 2 1 Z M-1 1 C-0.01 1.66 0.98 2.32 2 3 C2.99 2.67 3.98 2.34 5 2 C3.81752118 5.54743646 3.02135508 5.89236382 -0.0625 7.8125 C-4.54164113 10.6765662 -8.78580332 13.76184343 -13 17 C-11.06238571 12.97044816 -9.06782472 8.97309399 -4.875 7 C-2.21854193 5.58322236 -1.87944941 3.78492312 -1 1 Z " fill="#EDEDED" transform="translate(252,258)"/>
<path d="M0 0 C0.2475 0.5775 0.495 1.155 0.75 1.75 C2.16683317 4.3002997 3.87627537 6.01785701 6 8 C2.09161134 8 0.88405893 6.49432124 -2 4 C-2 4.99 -2 5.98 -2 7 C-1.01 7.33 -0.02 7.66 1 8 C1 8.66 1 9.32 1 10 C1.99 10.33 2.98 10.66 4 11 C0.05362526 10.43623218 -2.83196811 9.4640248 -6 7 C-6.8125 4.3125 -6.8125 4.3125 -7 2 C-5.68 2 -4.36 2 -3 2 C-2.01 1.34 -1.02 0.68 0 0 Z " fill="#E5E5E5" transform="translate(455,212)"/>
<path d="M0 0 C0 2.31 0 4.62 0 7 C-2.375 7.125 -2.375 7.125 -5 7 C-7 5 -7 5 -7.125 2.375 C-7.08375 1.59125 -7.0425 0.8075 -7 0 C-4.3333581 -1.33332095 -2.83319697 -0.67102033 0 0 Z " fill="#F5F5F5" transform="translate(451,544)"/>
<path d="M0 0 C0 2.31 0 4.62 0 7 C-2.375 7.125 -2.375 7.125 -5 7 C-7 5 -7 5 -7.125 2.375 C-7.08375 1.59125 -7.0425 0.8075 -7 0 C-4.3333581 -1.33332095 -2.83319697 -0.67102033 0 0 Z " fill="#F5F5F5" transform="translate(131,544)"/>
<path d="M0 0 C2.13745922 0.25146579 3.45925779 0.45925779 5 2 C5.125 4.5 5.125 4.5 5 7 C4 8 4 8 1.4375 8.0625 C0.633125 8.041875 -0.17125 8.02125 -1 8 C-1.66 6.35 -2.32 4.7 -3 3 C-1.75 1.4375 -1.75 1.4375 0 0 Z " fill="#F5F5F5" transform="translate(580,409)"/>
<path d="M0 0 C0 2.31 0 4.62 0 7 C-2.375 7.125 -2.375 7.125 -5 7 C-7 5 -7 5 -7.125 2.375 C-7.08375 1.59125 -7.0425 0.8075 -7 0 C-4.3333581 -1.33332095 -2.83319697 -0.67102033 0 0 Z " fill="#F5F5F5" transform="translate(451,224)"/>
<path d="M0 0 C3.875 1.875 3.875 1.875 5 3 C5.04080783 4.99958364 5.04254356 7.00045254 5 9 C4.01 9.33 3.02 9.66 2 10 C-0.6875 8.5625 -0.6875 8.5625 -3 7 C-2.690625 6.401875 -2.38125 5.80375 -2.0625 5.1875 C-0.89790296 2.91043228 -0.89790296 2.91043228 0 0 Z " fill="#F6F6F6" transform="translate(126,221)"/>
<path d="M0 0 C2.13745922 0.25146579 3.45925779 0.45925779 5 2 C5.125 4.5 5.125 4.5 5 7 C4 8 4 8 1.4375 8.0625 C0.633125 8.041875 -0.17125 8.02125 -1 8 C-1.66 6.35 -2.32 4.7 -3 3 C-1.75 1.4375 -1.75 1.4375 0 0 Z " fill="#F5F5F5" transform="translate(580,89)"/>
<path d="M0 0 C1 1 1 1 1.125 3.5 C1 6 1 6 0 7 C-2.5 7.125 -2.5 7.125 -5 7 C-6 6 -6 6 -6.0625 2.9375 C-6.041875 1.968125 -6.02125 0.99875 -6 0 C-3.49749232 -1.25125384 -2.59701335 -0.83774624 0 0 Z " fill="#F5F5F5" transform="translate(434,560)"/>
<path d="M0 0 C1 1 1 1 1.125 3.5 C1 6 1 6 0 7 C-2.5 7.125 -2.5 7.125 -5 7 C-6 6 -6 6 -6.0625 2.9375 C-6.041875 1.968125 -6.02125 0.99875 -6 0 C-3.49749232 -1.25125384 -2.59701335 -0.83774624 0 0 Z " fill="#F5F5F5" transform="translate(114,560)"/>
<path d="M0 0 C1 1 1 1 1.125 3.5 C1 6 1 6 0 7 C-2.5 7.125 -2.5 7.125 -5 7 C-6 6 -6 6 -6.0625 2.9375 C-6.041875 1.968125 -6.02125 0.99875 -6 0 C-3.49749232 -1.25125384 -2.59701335 -0.83774624 0 0 Z " fill="#F5F5F5" transform="translate(434,240)"/>
<path d="M0 0 C3.3 0.33 6.6 0.66 10 1 C10 1.66 10 2.32 10 3 C7.69 3 5.38 3 3 3 C3 4.65 3 6.3 3 8 C-0.36591866 6.55746343 -2.51047079 4.66735273 -5 2 C-4.01 1.67 -3.02 1.34 -2 1 C-1.34 1.33 -0.68 1.66 0 2 C0 1.34 0 0.68 0 0 Z " fill="#EBEBEB" transform="translate(458,533)"/>
<path d="M0 0 C1.32 0.66 2.64 1.32 4 2 C3.34 3.65 2.68 5.3 2 7 C2.66 7 3.32 7 4 7 C4.33 6.34 4.66 5.68 5 5 C4.75 6.875 4.75 6.875 4 9 C1.9375 10.25 1.9375 10.25 0 11 C0.33 10.34 0.66 9.68 1 9 C-0.65 8.67 -2.3 8.34 -4 8 C-4.33 7.01 -4.66 6.02 -5 5 C-3.35 4.67 -1.7 4.34 0 4 C0 2.68 0 1.36 0 0 Z " fill="#080504" transform="translate(528,463)"/>
<path d="M0 0 C1.2065625 0.0309375 1.2065625 0.0309375 2.4375 0.0625 C2.7675 2.3725 3.0975 4.6825 3.4375 7.0625 C1.0625 7.6875 1.0625 7.6875 -1.5625 8.0625 C-3.5625 6.0625 -3.5625 6.0625 -3.75 3.5 C-3.4919783 0.14571793 -3.38163728 0.08247896 0 0 Z " fill="#F5F5F5" transform="translate(597.5625,392.9375)"/>
<path d="M0 0 C1.2065625 0.0309375 1.2065625 0.0309375 2.4375 0.0625 C2.7675 2.3725 3.0975 4.6825 3.4375 7.0625 C1.0625 7.6875 1.0625 7.6875 -1.5625 8.0625 C-3.5625 6.0625 -3.5625 6.0625 -3.75 3.5 C-3.4919783 0.14571793 -3.38163728 0.08247896 0 0 Z " fill="#F5F5F5" transform="translate(277.5625,392.9375)"/>
<path d="M0 0 C1.2065625 0.0309375 1.2065625 0.0309375 2.4375 0.0625 C2.7675 2.3725 3.0975 4.6825 3.4375 7.0625 C1.0625 7.6875 1.0625 7.6875 -1.5625 8.0625 C-3.5625 6.0625 -3.5625 6.0625 -3.75 3.5 C-3.4919783 0.14571793 -3.38163728 0.08247896 0 0 Z " fill="#F5F5F5" transform="translate(597.5625,72.9375)"/>
<path d="M0 0 C1.2065625 0.0309375 1.2065625 0.0309375 2.4375 0.0625 C2.7675 2.3725 3.0975 4.6825 3.4375 7.0625 C1.0625 7.6875 1.0625 7.6875 -1.5625 8.0625 C-3.5625 6.0625 -3.5625 6.0625 -3.75 3.5 C-3.4919783 0.14571793 -3.38163728 0.08247896 0 0 Z " fill="#F5F5F5" transform="translate(277.5625,72.9375)"/>
<path d="M0 0 C0.33 0.66 0.66 1.32 1 2 C1.66 2 2.32 2 3 2 C3 3.32 3 4.64 3 6 C2.34 5.67 1.68 5.34 1 5 C1.33 4.34 1.66 3.68 2 3 C1.01 3.495 1.01 3.495 0 4 C0 4.99 0 5.98 0 7 C0.99 7 1.98 7 3 7 C3.33 6.34 3.66 5.68 4 5 C4.66 5 5.32 5 6 5 C5.67 6.32 5.34 7.64 5 9 C2.08517222 9.80967438 0.53886783 10.21845993 -2.3125 9.0625 C-2.869375 8.711875 -3.42625 8.36125 -4 8 C-4.25 5.6875 -4.25 5.6875 -4 3 C-2 1.1875 -2 1.1875 0 0 Z " fill="#100C0B" transform="translate(376,293)"/>
<path d="M0 0 C2.475 0.495 2.475 0.495 5 1 C5.33 1.99 5.66 2.98 6 4 C6.99 4.33 7.98 4.66 9 5 C9.33 6.65 9.66 8.3 10 10 C10.66 10 11.32 10 12 10 C11.34 11.32 10.68 12.64 10 14 C8 11 8 11 6.6875 8.5625 C4.80994059 5.71139126 2.66820792 4.0912981 0 2 C0 1.34 0 0.68 0 0 Z " fill="#EFEFEF" transform="translate(267,172)"/>
<path d="M0 0 C3.86933162 0.57323431 6.15222057 2.38953552 9 5 C9 5.66 9 6.32 9 7 C5.88801935 5.50163895 2.9465385 3.80066242 0 2 C-0.41176754 5.60296594 -0.1535853 6.78402067 2 9.8125 C2.66 10.534375 3.32 11.25625 4 12 C0.59679258 10.98823563 -0.75725331 10.35156418 -2.8125 7.375 C-3.4003125 6.199375 -3.4003125 6.199375 -4 5 C-2.68 3.35 -1.36 1.7 0 0 Z " fill="#E5E5E5" transform="translate(437,549)"/>
<path d="M0 0 C3.86933162 0.57323431 6.15222057 2.38953552 9 5 C9 5.66 9 6.32 9 7 C5.88801935 5.50163895 2.9465385 3.80066242 0 2 C-0.41176754 5.60296594 -0.1535853 6.78402067 2 9.8125 C2.66 10.534375 3.32 11.25625 4 12 C0.59679258 10.98823563 -0.75725331 10.35156418 -2.8125 7.375 C-3.4003125 6.199375 -3.4003125 6.199375 -4 5 C-2.68 3.35 -1.36 1.7 0 0 Z " fill="#E5E5E5" transform="translate(117,549)"/>
<path d="M0 0 C3.86933162 0.57323431 6.15222057 2.38953552 9 5 C9 5.66 9 6.32 9 7 C5.88801935 5.50163895 2.9465385 3.80066242 0 2 C-0.41176754 5.60296594 -0.1535853 6.78402067 2 9.8125 C2.66 10.534375 3.32 11.25625 4 12 C0.59679258 10.98823563 -0.75725331 10.35156418 -2.8125 7.375 C-3.4003125 6.199375 -3.4003125 6.199375 -4 5 C-2.68 3.35 -1.36 1.7 0 0 Z " fill="#E5E5E5" transform="translate(437,229)"/>
<path d="M0 0 C0.66 0.33 1.32 0.66 2 1 C1.3503125 1.74056641 1.3503125 1.74056641 0.6875 2.49609375 C0.130625 3.13675781 -0.42625 3.77742188 -1 4.4375 C-1.556875 5.07558594 -2.11375 5.71367187 -2.6875 6.37109375 C-4.10457065 7.78113179 -4.10457065 7.78113179 -4 9 C-5.33333333 9.66666667 -6.66666667 10.33333333 -8 11 C-9.010625 11.556875 -10.02125 12.11375 -11.0625 12.6875 C-14 14 -14 14 -17 13 C-16.10796875 12.39671875 -15.2159375 11.7934375 -14.296875 11.171875 C-13.11442934 10.36480891 -11.93214624 9.55750461 -10.75 8.75 C-10.16347656 8.35425781 -9.57695312 7.95851563 -8.97265625 7.55078125 C-5.65504285 5.27691139 -2.75007523 2.96790297 0 0 Z " fill="#E3E2E3" transform="translate(385,430)"/>
<path d="M0 0 C0.33 0.99 0.66 1.98 1 3 C-0.32 4.32 -1.64 5.64 -3 7 C-1.68 7 -0.36 7 1 7 C1.66 5.35 2.32 3.7 3 2 C3.33 2.99 3.66 3.98 4 5 C3.01 6.485 3.01 6.485 2 8 C-1.625 8.1875 -1.625 8.1875 -5 8 C-5 7.34 -5 6.68 -5 6 C-5.66 6 -6.32 6 -7 6 C-7 4.35 -7 2.7 -7 1 C-6.67 1.99 -6.34 2.98 -6 4 C-4.02 2.68 -2.04 1.36 0 0 Z " fill="#E5E5E5" transform="translate(465,208)"/>
<path d="M0 0 C0 0.66 0 1.32 0 2 C-0.66 2 -1.32 2 -2 2 C-2.33 2.99 -2.66 3.98 -3 5 C-5.6875 6.0625 -5.6875 6.0625 -9 7 C-10.11375 7.37125 -11.2275 7.7425 -12.375 8.125 C-13.24125 8.41375 -14.1075 8.7025 -15 9 C-6.24324324 0 -6.24324324 0 0 0 Z " fill="#ECECEC" transform="translate(280,289)"/>
<path d="M0 0 C0.66 0.33 1.32 0.66 2 1 C1.46823005 5.13813705 -0.77932166 7.27082318 -3.5625 10.25 C-4.38878906 11.14203125 -5.21507812 12.0340625 -6.06640625 12.953125 C-6.70449219 13.62859375 -7.34257812 14.3040625 -8 15 C-8.66 14.67 -9.32 14.34 -10 14 C-10 13.34 -10 12.68 -10 12 C-8.75146711 10.84728475 -7.45031062 9.75104998 -6.125 8.6875 C-2.9896473 6.03962263 -0.99769909 4.11550873 0 0 Z " fill="#E9E9E9" transform="translate(517,474)"/>
<path d="M0 0 C-1.49097658 3.7952131 -3.75700849 5.61042731 -7 8 C-7.625 5.6875 -7.625 5.6875 -8 3 C-6 0 -6 0 -4 -0.75 C-2 -1 -2 -1 0 0 Z " fill="#110F0F" transform="translate(264,297)"/>
<path d="M0 0 C2.15524119 1.30620678 4.14743327 2.60851423 6.0625 4.25 C6.0625 4.91 6.0625 5.57 6.0625 6.25 C3.39583333 4.91666667 0.72916667 3.58333333 -1.9375 2.25 C-2.5975 3.9 -3.2575 5.55 -3.9375 7.25 C-3.2775 7.58 -2.6175 7.91 -1.9375 8.25 C-2.9275 8.25 -3.9175 8.25 -4.9375 8.25 C-6.0625 6.5 -6.0625 6.5 -6.9375 4.25 C-6.25 2.0625 -6.25 2.0625 -4.9375 0.25 C-1.9375 -0.75 -1.9375 -0.75 0 0 Z " fill="#E6E6E6" transform="translate(269.9375,79.75)"/>
<path d="M0 0 C0.66 0.33 1.32 0.66 2 1 C1.34 3.31 0.68 5.62 0 8 C-0.66 7.67 -1.32 7.34 -2 7 C-2.66 7.66 -3.32 8.32 -4 9 C-5.32392972 10.01241685 -6.65599167 11.01439389 -8 12 C-6.49087042 7.01987239 -3.44338151 3.75740058 0 0 Z " fill="#E7E7E7" transform="translate(259,303)"/>
<path d="M0 0 C3.87511727 0.54984772 5.59576506 2.27555331 8.25 5.0625 C8.95640625 5.79597656 9.6628125 6.52945312 10.390625 7.28515625 C10.92171875 7.85105469 11.4528125 8.41695312 12 9 C11.01 9.33 10.02 9.66 9 10 C7.24609375 8.92578125 7.24609375 8.92578125 5.4375 7.3125 C4.83808594 6.79300781 4.23867187 6.27351563 3.62109375 5.73828125 C1.93577517 3.93113241 0.98665088 2.25309828 0 0 Z " fill="#E2E2E2" transform="translate(98,505)"/>
<path d="M0 0 C0.66 0.33 1.32 0.66 2 1 C1.01 2.485 1.01 2.485 0 4 C0.33 4.66 0.66 5.32 1 6 C-1.8125 7.125 -1.8125 7.125 -5 8 C-5.99 7.34 -6.98 6.68 -8 6 C-5.36 4.02 -2.72 2.04 0 0 Z " fill="#121010" transform="translate(118,184)"/>
<path d="M0 0 C2.97 0.495 2.97 0.495 6 1 C5.01 1.495 5.01 1.495 4 2 C4 2.66 4 3.32 4 4 C4.598125 3.649375 5.19625 3.29875 5.8125 2.9375 C8 2 8 2 11 3 C10.67 3.66 10.34 4.32 10 5 C2.25 5.125 2.25 5.125 0 4 C0 2.68 0 1.36 0 0 Z " fill="#E8E8E8" transform="translate(138,531)"/>
<path d="M0 0 C0.99 0.33 1.98 0.66 3 1 C3 1.66 3 2.32 3 3 C2.360625 3.2475 1.72125 3.495 1.0625 3.75 C0.381875 4.1625 -0.29875 4.575 -1 5 C-1.144375 5.639375 -1.28875 6.27875 -1.4375 6.9375 C-2 9 -2 9 -4.4375 10.6875 C-5.95504823 11.4647808 -7.47497723 12.23748862 -9 13 C-7.50923566 9.7173068 -5.61379679 7.06922559 -3.375 4.25 C-2.74335938 3.45078125 -2.11171875 2.6515625 -1.4609375 1.828125 C-0.97882813 1.22484375 -0.49671875 0.6215625 0 0 Z " fill="#DDDDDD" transform="translate(401,412)"/>
<path d="M0 0 C1.32 0.99 2.64 1.98 4 3 C3.34 4.65 2.68 6.3 2 8 C1.34 8 0.68 8 0 8 C-0.66 9.32 -1.32 10.64 -2 12 C-3.40907283 9.18185434 -2.50872691 7.82722796 -1.5625 4.875 C-1.27503906 3.96492188 -0.98757813 3.05484375 -0.69140625 2.1171875 C-0.46324219 1.41851562 -0.23507812 0.71984375 0 0 Z " fill="#1A1919" transform="translate(384,368)"/>
<path d="M0 0 C-1.32 1.65 -2.64 3.3 -4 5 C-5.65 4.67 -7.3 4.34 -9 4 C-8.67 2.68 -8.34 1.36 -8 0 C-4.94736336 -0.98120464 -3.05263664 -0.98120464 0 0 Z " fill="#11100F" transform="translate(291,249)"/>
<path d="M0 0 C2.6875 -0.3125 2.6875 -0.3125 5 0 C5.33 0.66 5.66 1.32 6 2 C4.35 1.67 2.7 1.34 1 1 C0.58823246 4.60296594 0.8464147 5.78402067 3 8.8125 C3.66 9.534375 4.32 10.25625 5 11 C1.63408134 9.55746343 -0.51047079 7.66735273 -3 5 C-1.8125 2.5 -1.8125 2.5 0 0 Z " fill="#E4E4E4" transform="translate(586,400)"/>
<path d="M0 0 C2.6875 -0.3125 2.6875 -0.3125 5 0 C5.33 0.66 5.66 1.32 6 2 C4.35 1.67 2.7 1.34 1 1 C0.58823246 4.60296594 0.8464147 5.78402067 3 8.8125 C3.66 9.534375 4.32 10.25625 5 11 C1.63408134 9.55746343 -0.51047079 7.66735273 -3 5 C-1.8125 2.5 -1.8125 2.5 0 0 Z " fill="#E4E4E4" transform="translate(586,80)"/>
<path d="M0 0 C3.98542514 1.36643148 6.92539863 3.10109014 10 6 C10 6.99 10 7.98 10 9 C5.70281759 7.09014115 2.3108493 4.3108493 -1 1 C-0.67 0.67 -0.34 0.34 0 0 Z " fill="#E5E5E5" transform="translate(485,106)"/>
<path d="M0 0 C1.32 0 2.64 0 4 0 C4.33 0.99 4.66 1.98 5 3 C5.99 3.66 6.98 4.32 8 5 C8 5.66 8 6.32 8 7 C8.99 7.33 9.98 7.66 11 8 C7.05372236 7.43624605 4.20519925 6.40389944 1 4 C0.1875 1.8125 0.1875 1.8125 0 0 Z " fill="#E6E6E6" transform="translate(448,535)"/>
<path d="M0 0 C2.475 0.495 2.475 0.495 5 1 C5 1.99 5 2.98 5 4 C6.82260298 6.16976546 8.60811001 7.40540668 11 9 C7.17784773 8.46914552 4.88243054 7.58424807 2 5 C0 2 0 2 0 0 Z " fill="#E5E5E5" transform="translate(598,384)"/>
<path d="M0 0 C2.475 0.495 2.475 0.495 5 1 C5 1.99 5 2.98 5 4 C6.82260298 6.16976546 8.60811001 7.40540668 11 9 C7.17784773 8.46914552 4.88243054 7.58424807 2 5 C0 2 0 2 0 0 Z " fill="#E5E5E5" transform="translate(278,384)"/>
<path d="M0 0 C2.475 0.495 2.475 0.495 5 1 C5 1.99 5 2.98 5 4 C6.82260298 6.16976546 8.60811001 7.40540668 11 9 C7.17784773 8.46914552 4.88243054 7.58424807 2 5 C0 2 0 2 0 0 Z " fill="#E5E5E5" transform="translate(598,64)"/>
<path d="M0 0 C2.475 0.495 2.475 0.495 5 1 C5 1.99 5 2.98 5 4 C6.82260298 6.16976546 8.60811001 7.40540668 11 9 C7.17784773 8.46914552 4.88243054 7.58424807 2 5 C0 2 0 2 0 0 Z " fill="#E5E5E5" transform="translate(278,64)"/>
<path d="M0 0 C0.33 0.66 0.66 1.32 1 2 C1.66 2 2.32 2 3 2 C3 3.32 3 4.64 3 6 C1.35 6.33 -0.3 6.66 -2 7 C-2.33 7.99 -2.66 8.98 -3 10 C-3.33 9.34 -3.66 8.68 -4 8 C-3.22265625 6.0546875 -3.22265625 6.0546875 -2.0625 3.875 C-1.49208984 2.78832031 -1.49208984 2.78832031 -0.91015625 1.6796875 C-0.60980469 1.12539063 -0.30945313 0.57109375 0 0 Z " fill="#100F0F" transform="translate(221,298)"/>
<path d="M0 0 C2.31 0.66 4.62 1.32 7 2 C7 2.66 7 3.32 7 4 C8.45833358 5.62514468 8.45833358 5.62514468 10 7 C6.65580848 7 5.93159679 6.52480606 3.3125 4.625 C2.68988281 4.18414062 2.06726563 3.74328125 1.42578125 3.2890625 C0.95527344 2.86367187 0.48476563 2.43828125 0 2 C0 1.34 0 0.68 0 0 Z " fill="#EBEBEB" transform="translate(526,186)"/>
<path d="M0 0 C0.99 0.33 1.98 0.66 3 1 C2.34 1 1.68 1 1 1 C0.67 2.65 0.34 4.3 0 6 C1.65 6 3.3 6 5 6 C5.33 5.34 5.66 4.68 6 4 C6 4.99 6 5.98 6 7 C4.02 7.33 2.04 7.66 0 8 C-2 5 -2 5 -1.6875 2.875 C-1 1 -1 1 0 0 Z " fill="#E9E9E9" transform="translate(378,148)"/>
<path d="M0 0 C0.763125 0.0825 1.52625 0.165 2.3125 0.25 C1.08315985 3.93802044 -0.62609378 4.97356973 -3.6875 7.25 C-4.3475 6.26 -5.0075 5.27 -5.6875 4.25 C-3.34903846 0.31153846 -3.34903846 0.31153846 0 0 Z " fill="#EFEFEF" transform="translate(526.6875,612.75)"/>
<path d="M0 0 C0.763125 0.0825 1.52625 0.165 2.3125 0.25 C1.08315985 3.93802044 -0.62609378 4.97356973 -3.6875 7.25 C-4.3475 6.26 -5.0075 5.27 -5.6875 4.25 C-3.34903846 0.31153846 -3.34903846 0.31153846 0 0 Z " fill="#EFEFEF" transform="translate(206.6875,612.75)"/>
<path d="M0 0 C0.763125 0.0825 1.52625 0.165 2.3125 0.25 C1.08315985 3.93802044 -0.62609378 4.97356973 -3.6875 7.25 C-4.3475 6.26 -5.0075 5.27 -5.6875 4.25 C-3.34903846 0.31153846 -3.34903846 0.31153846 0 0 Z " fill="#EFEFEF" transform="translate(206.6875,292.75)"/>
<path d="M0 0 C2.89696854 0.36982577 5.37621929 0.68810965 8 2 C7.67 2.99 7.34 3.98 7 5 C4.69 4.67 2.38 4.34 0 4 C-0.33 3.01 -0.66 2.02 -1 1 C-0.67 0.67 -0.34 0.34 0 0 Z " fill="#0B0A0A" transform="translate(506,178)"/>
<path d="M0 0 C-1.49835228 4.66154042 -4.88463591 5.86610751 -9 8 C-7.47364599 4.11473526 -4.49771687 0 0 0 Z " fill="#101010" transform="translate(533,510)"/>
<path d="M0 0 C0 1.65 0 3.3 0 5 C-1.32 5.33 -2.64 5.66 -4 6 C-4.33 5.34 -4.66 4.68 -5 4 C-5.33 3.67 -5.66 3.34 -6 3 C-3.375 0 -3.375 0 0 0 Z " fill="#F8F8F8" transform="translate(147,209)"/>
<path d="M0 0 C0.66 0.33 1.32 0.66 2 1 C0.12050295 4.57104439 -1.17053157 6.54744301 -5 8 C-5 5 -5 5 -2.5 2.3125 C-1.675 1.549375 -0.85 0.78625 0 0 Z " fill="#131212" transform="translate(172,96)"/>
<path d="M0 0 C-0.33 1.32 -0.66 2.64 -1 4 C-1.66 3.67 -2.32 3.34 -3 3 C-2.67 2.34 -2.34 1.68 -2 1 C-3.65 1.33 -5.3 1.66 -7 2 C-7 2.66 -7 3.32 -7 4 C-7.66 4 -8.32 4 -9 4 C-6.73455663 -1.01633889 -5.27613404 -1.24961069 0 0 Z " fill="#171413" transform="translate(297,526)"/>
<path d="M0 0 C1 2 1 2 0.3125 5.0625 C-1 8 -1 8 -3.125 8.875 C-3.74375 8.91625 -4.3625 8.9575 -5 9 C-3.90931332 5.22454612 -3.0916909 2.52956528 0 0 Z " fill="#EDECED" transform="translate(412,395)"/>
<path d="M0 0 C1.20628008 2.33214148 2.1654738 4.49642139 3 7 C3.99 7.33 4.98 7.66 6 8 C6 8.66 6 9.32 6 10 C2.51866169 8.60746468 1.52113967 7.36823784 0 4 C-0.66 3.67 -1.32 3.34 -2 3 C-1.34 2.01 -0.68 1.02 0 0 Z " fill="#E6E6E6" transform="translate(605,381)"/>
<path d="M0 0 C1.20628008 2.33214148 2.1654738 4.49642139 3 7 C3.99 7.33 4.98 7.66 6 8 C6 8.66 6 9.32 6 10 C2.51866169 8.60746468 1.52113967 7.36823784 0 4 C-0.66 3.67 -1.32 3.34 -2 3 C-1.34 2.01 -0.68 1.02 0 0 Z " fill="#E6E6E6" transform="translate(285,381)"/>
<path d="M0 0 C0.33 0 0.66 0 1 0 C1.1958009 1.91583647 1.38132214 3.83272539 1.5625 5.75 C1.66691406 6.81734375 1.77132813 7.8846875 1.87890625 8.984375 C1.98560074 11.64141204 1.81930395 13.49960572 1 16 C0.34 16 -0.32 16 -1 16 C-0.67 10.72 -0.34 5.44 0 0 Z " fill="#D1D1D1" transform="translate(460,333)"/>
<path d="M0 0 C1.20628008 2.33214148 2.1654738 4.49642139 3 7 C3.99 7.33 4.98 7.66 6 8 C6 8.66 6 9.32 6 10 C2.51866169 8.60746468 1.52113967 7.36823784 0 4 C-0.66 3.67 -1.32 3.34 -2 3 C-1.34 2.01 -0.68 1.02 0 0 Z " fill="#E6E6E6" transform="translate(605,61)"/>
<path d="M0 0 C1.20628008 2.33214148 2.1654738 4.49642139 3 7 C3.99 7.33 4.98 7.66 6 8 C6 8.66 6 9.32 6 10 C2.51866169 8.60746468 1.52113967 7.36823784 0 4 C-0.66 3.67 -1.32 3.34 -2 3 C-1.34 2.01 -0.68 1.02 0 0 Z " fill="#E6E6E6" transform="translate(285,61)"/>
<path d="M0 0 C7.42857143 -0.14285714 7.42857143 -0.14285714 11 1 C11 1.66 11 2.32 11 3 C9.35333797 2.8864371 7.70763918 2.75882619 6.0625 2.625 C5.14597656 2.55539062 4.22945313 2.48578125 3.28515625 2.4140625 C2.15400391 2.20910156 2.15400391 2.20910156 1 2 C0.67 1.34 0.34 0.68 0 0 Z " fill="#FAFAFA" transform="translate(321,280)"/>
<path d="M0 0 C1.32 0 2.64 0 4 0 C3.34 1.32 2.68 2.64 2 4 C1.34 4 0.68 4 0 4 C0 4.66 0 5.32 0 6 C-0.66 6 -1.32 6 -2 6 C-1.125 1.125 -1.125 1.125 0 0 Z " fill="#F5F5F5" transform="translate(620,368)"/>
<path d="M0 0 C1.32 0 2.64 0 4 0 C3.34 1.32 2.68 2.64 2 4 C1.34 4 0.68 4 0 4 C0 4.66 0 5.32 0 6 C-0.66 6 -1.32 6 -2 6 C-1.125 1.125 -1.125 1.125 0 0 Z " fill="#F5F5F5" transform="translate(300,368)"/>
<path d="M0 0 C2.64 1.98 5.28 3.96 8 6 C7.67 6.66 7.34 7.32 7 8 C6.34 8 5.68 8 5 8 C4.34 7.34 3.68 6.68 3 6 C2.34 6 1.68 6 1 6 C0.67 4.02 0.34 2.04 0 0 Z " fill="#171716" transform="translate(327,96)"/>
<path d="M0 0 C1.32 0 2.64 0 4 0 C3.34 1.32 2.68 2.64 2 4 C1.34 4 0.68 4 0 4 C0 4.66 0 5.32 0 6 C-0.66 6 -1.32 6 -2 6 C-1.125 1.125 -1.125 1.125 0 0 Z " fill="#F5F5F5" transform="translate(620,48)"/>
<path d="M0 0 C1.32 0 2.64 0 4 0 C3.34 1.32 2.68 2.64 2 4 C1.34 4 0.68 4 0 4 C0 4.66 0 5.32 0 6 C-0.66 6 -1.32 6 -2 6 C-1.125 1.125 -1.125 1.125 0 0 Z " fill="#F5F5F5" transform="translate(300,48)"/>
<path d="M0 0 C0.66 0 1.32 0 2 0 C2 2.97 2 5.94 2 9 C1.34 9 0.68 9 0 9 C-1.625 6.5 -1.625 6.5 -3 4 C-2.34 3.67 -1.68 3.34 -1 3 C-0.67 2.01 -0.34 1.02 0 0 Z " fill="#171312" transform="translate(110,412)"/>
<path d="M0 0 C1.2065625 0.0309375 1.2065625 0.0309375 2.4375 0.0625 C0.79580472 2.08304804 -0.87161778 4.08293058 -2.5625 6.0625 C-2.8925 6.0625 -3.2225 6.0625 -3.5625 6.0625 C-3.605221 4.39638095 -3.60313832 2.72867115 -3.5625 1.0625 C-2.5625 0.0625 -2.5625 0.0625 0 0 Z " fill="#F5F5F5" transform="translate(613.5625,376.9375)"/>
<path d="M0 0 C1.2065625 0.0309375 1.2065625 0.0309375 2.4375 0.0625 C0.79580472 2.08304804 -0.87161778 4.08293058 -2.5625 6.0625 C-2.8925 6.0625 -3.2225 6.0625 -3.5625 6.0625 C-3.605221 4.39638095 -3.60313832 2.72867115 -3.5625 1.0625 C-2.5625 0.0625 -2.5625 0.0625 0 0 Z " fill="#F5F5F5" transform="translate(293.5625,376.9375)"/>
<path d="M0 0 C1.2065625 0.0309375 1.2065625 0.0309375 2.4375 0.0625 C0.79580472 2.08304804 -0.87161778 4.08293058 -2.5625 6.0625 C-2.8925 6.0625 -3.2225 6.0625 -3.5625 6.0625 C-3.605221 4.39638095 -3.60313832 2.72867115 -3.5625 1.0625 C-2.5625 0.0625 -2.5625 0.0625 0 0 Z " fill="#F5F5F5" transform="translate(613.5625,56.9375)"/>
<path d="M0 0 C1.2065625 0.0309375 1.2065625 0.0309375 2.4375 0.0625 C0.79580472 2.08304804 -0.87161778 4.08293058 -2.5625 6.0625 C-2.8925 6.0625 -3.2225 6.0625 -3.5625 6.0625 C-3.605221 4.39638095 -3.60313832 2.72867115 -3.5625 1.0625 C-2.5625 0.0625 -2.5625 0.0625 0 0 Z " fill="#F5F5F5" transform="translate(293.5625,56.9375)"/>
<path d="M0 0 C1.65 0 3.3 0 5 0 C3.71937515 1.7074998 2.38232443 3.37373596 1 5 C0.34 5 -0.32 5 -1 5 C-0.67 3.35 -0.34 1.7 0 0 Z " fill="#080403" transform="translate(299,519)"/>
<path d="M0 0 C0 0.66 0 1.32 0 2 C-1.36125 1.938125 -1.36125 1.938125 -2.75 1.875 C-5.8782046 1.99531556 -7.38614006 2.3914708 -10 4 C-9.67 3.01 -9.34 2.02 -9 1 C-6.04335481 -0.4783226 -3.25770263 -0.06032783 0 0 Z " fill="#E6E6E6" transform="translate(384,465)"/>
<path d="M0 0 C0 0.66 0 1.32 0 2 C-1.36125 1.938125 -1.36125 1.938125 -2.75 1.875 C-5.8782046 1.99531556 -7.38614006 2.3914708 -10 4 C-9.67 3.01 -9.34 2.02 -9 1 C-6.04335481 -0.4783226 -3.25770263 -0.06032783 0 0 Z " fill="#E6E6E6" transform="translate(64,465)"/>
<path d="M0 0 C2.64 0 5.28 0 8 0 C6.35 1.65 4.7 3.3 3 5 C2.87625 4.360625 2.7525 3.72125 2.625 3.0625 C2.315625 2.0415625 2.315625 2.0415625 2 1 C1.34 0.67 0.68 0.34 0 0 Z " fill="#FCFCFC" transform="translate(458,207)"/>
<path d="M0 0 C0 0.66 0 1.32 0 2 C-1.36125 1.938125 -1.36125 1.938125 -2.75 1.875 C-5.8782046 1.99531556 -7.38614006 2.3914708 -10 4 C-9.67 3.01 -9.34 2.02 -9 1 C-6.04335481 -0.4783226 -3.25770263 -0.06032783 0 0 Z " fill="#E7E7E7" transform="translate(384,145)"/>
<path d="M0 0 C0 0.66 0 1.32 0 2 C-1.36125 1.938125 -1.36125 1.938125 -2.75 1.875 C-5.8782046 1.99531556 -7.38614006 2.3914708 -10 4 C-9.67 3.01 -9.34 2.02 -9 1 C-6.04335481 -0.4783226 -3.25770263 -0.06032783 0 0 Z " fill="#E6E6E6" transform="translate(64,145)"/>
<path d="M0 0 C1.875 0.125 1.875 0.125 4 1 C5.25 4.0625 5.25 4.0625 6 7 C3 6 3 6 1.3125 2.9375 C0.879375 1.968125 0.44625 0.99875 0 0 Z " fill="#141313" transform="translate(88,487)"/>
<path d="M0 0 C0.66 0.33 1.32 0.66 2 1 C0.71937515 2.7074998 -0.61767557 4.37373596 -2 6 C-2.66 6 -3.32 6 -4 6 C-3.6875 4.125 -3.6875 4.125 -3 2 C-2.01 1.34 -1.02 0.68 0 0 Z " fill="#0C0B0B" transform="translate(548,490)"/>
<path d="M0 0 C4.875 1.75 4.875 1.75 6 4 C4.68 4 3.36 4 2 4 C1.67 4.66 1.34 5.32 1 6 C0.34 4.35 -0.32 2.7 -1 1 C-0.67 0.67 -0.34 0.34 0 0 Z " fill="#0F0E0E" transform="translate(268,410)"/>
<path d="M0 0 C1.32 0 2.64 0 4 0 C3.34 2.64 2.68 5.28 2 8 C0.23537317 4.91190305 0 3.76687864 0 0 Z " fill="#161515" transform="translate(411,384)"/>
<path d="M0 0 C0.99 0.33 1.98 0.66 3 1 C3.33 2.65 3.66 4.3 4 6 C1.525 5.01 1.525 5.01 -1 4 C-0.67 2.68 -0.34 1.36 0 0 Z " fill="#E8E8E8" transform="translate(369,257)"/>
<path d="M0 0 C0 0.33 0 0.66 0 1 C-2.97 1 -5.94 1 -9 1 C-9.33 0.34 -9.66 -0.32 -10 -1 C-6.06329512 -2.31223496 -3.87511856 -1.24296256 0 0 Z " fill="#FCFCFC" transform="translate(333,245)"/>
<path d="M0 0 C0.66 0 1.32 0 2 0 C2.33 0.66 2.66 1.32 3 2 C3.66 1.67 4.32 1.34 5 1 C4.67 2.65 4.34 4.3 4 6 C2.35 5.01 0.7 4.02 -1 3 C-0.67 2.01 -0.34 1.02 0 0 Z " fill="#1A1919" transform="translate(507,212)"/>
<path d="M0 0 C0.66 1.32 1.32 2.64 2 4 C0.68 4.99 -0.64 5.98 -2 7 C-2 5.02 -2 3.04 -2 1 C-1.34 0.67 -0.68 0.34 0 0 Z " fill="#0D0C0D" transform="translate(390,115)"/>
<path d="M0 0 C1.5625 1.1875 1.5625 1.1875 3 3 C2.6875 5.6875 2.6875 5.6875 2 8 C0.4375 6.25 0.4375 6.25 -1 4 C-0.6875 1.75 -0.6875 1.75 0 0 Z " fill="#EFEFEF" transform="translate(339,104)"/>
<path d="M0 0 C2.31 1.98 4.62 3.96 7 6 C6.01 6.33 5.02 6.66 4 7 C0 2.25 0 2.25 0 0 Z " fill="#DADADA" transform="translate(239,428)"/>
<path d="M0 0 C2.0625 0.4375 2.0625 0.4375 4 1 C4 1.66 4 2.32 4 3 C2 4.625 2 4.625 0 6 C-0.38218767 4.34385343 -0.71395102 2.67542976 -1 1 C-0.67 0.67 -0.34 0.34 0 0 Z " fill="#0E0C0D" transform="translate(322,192)"/>
</svg>
